<svg xmlns="http://www.w3.org/2000/svg" xmlns:xlink="http://www.w3.org/1999/xlink" width="500" zoomAndPan="magnify" viewBox="0 0 375 374.999991" height="500" preserveAspectRatio="xMidYMid meet" version="1.0"><defs><g/><clipPath id="268281500b"><path d="M 0.0390625 0.960938 L 271 0.960938 L 271 83 L 0.0390625 83 Z M 0.0390625 0.960938 " clip-rule="nonzero"/></clipPath><clipPath id="4337a9e888"><rect x="0" width="271" y="0" height="83"/></clipPath><clipPath id="340db830cf"><path d="M 1 71 L 273.398438 71 L 273.398438 137.039062 L 1 137.039062 Z M 1 71 " clip-rule="nonzero"/></clipPath><clipPath id="3c10529096"><rect x="0" width="273" y="0" height="67"/></clipPath><clipPath id="a7a1e6c864"><rect x="0" width="274" y="0" height="138"/></clipPath></defs><rect x="-37.5" width="450" fill="#ffffff" y="-37.499999" height="449.999989" fill-opacity="1"/><rect x="-37.5" width="450" fill="#000000" y="-37.499999" height="449.999989" fill-opacity="1"/><g transform="matrix(1, 0, 0, 1, 53, 114)"><g clip-path="url(#a7a1e6c864)"><g clip-path="url(#268281500b)"><g><g clip-path="url(#4337a9e888)"><g fill="#ffffff" fill-opacity="1"><g transform="translate(1.469706, 64.493144)"><g><path d="M 16.53125 0.65625 C 12 0.65625 8.515625 -0.738281 6.078125 -3.53125 C 3.640625 -6.320312 2.421875 -10.484375 2.421875 -16.015625 C 2.421875 -21.585938 3.628906 -25.863281 6.046875 -28.84375 C 8.460938 -31.832031 12.003906 -33.328125 16.671875 -33.328125 C 18.191406 -33.328125 19.625 -33.117188 20.96875 -32.703125 C 22.320312 -32.296875 23.46875 -31.84375 24.40625 -31.34375 C 25.34375 -30.84375 25.8125 -30.566406 25.8125 -30.515625 L 25.234375 -27.84375 C 25.054688 -27.976562 24.585938 -28.25 23.828125 -28.65625 C 23.066406 -29.070312 22.082031 -29.472656 20.875 -29.859375 C 19.675781 -30.253906 18.445312 -30.453125 17.1875 -30.453125 C 13.832031 -30.453125 11.367188 -29.34375 9.796875 -27.125 C 8.234375 -24.90625 7.453125 -21.222656 7.453125 -16.078125 C 7.453125 -11.109375 8.28125 -7.554688 9.9375 -5.421875 C 11.59375 -3.285156 13.921875 -2.21875 16.921875 -2.21875 C 18.628906 -2.21875 20.082031 -2.519531 21.28125 -3.125 C 22.476562 -3.738281 23.398438 -4.382812 24.046875 -5.0625 C 24.703125 -5.738281 25.03125 -6.144531 25.03125 -6.28125 L 27.125 -4.90625 C 27.125 -4.726562 26.726562 -4.171875 25.9375 -3.234375 C 25.15625 -2.296875 23.976562 -1.410156 22.40625 -0.578125 C 20.84375 0.242188 18.882812 0.65625 16.53125 0.65625 Z M 16.53125 0.65625 "/></g></g></g><g fill="#ffffff" fill-opacity="1"><g transform="translate(30.425082, 64.493144)"><g><path d="M 16.34375 0.65625 C 11.8125 0.65625 8.359375 -0.820312 5.984375 -3.78125 C 3.609375 -6.75 2.421875 -10.9375 2.421875 -16.34375 C 2.421875 -21.738281 3.609375 -25.914062 5.984375 -28.875 C 8.359375 -31.84375 11.8125 -33.328125 16.34375 -33.328125 C 20.875 -33.328125 24.328125 -31.84375 26.703125 -28.875 C 29.078125 -25.914062 30.265625 -21.738281 30.265625 -16.34375 C 30.265625 -10.976562 29.050781 -6.800781 26.625 -3.8125 C 24.207031 -0.832031 20.78125 0.65625 16.34375 0.65625 Z M 16.34375 -2.21875 C 19.394531 -2.21875 21.640625 -3.382812 23.078125 -5.71875 C 24.515625 -8.050781 25.234375 -11.59375 25.234375 -16.34375 C 25.234375 -21.050781 24.515625 -24.578125 23.078125 -26.921875 C 21.640625 -29.273438 19.394531 -30.453125 16.34375 -30.453125 C 13.289062 -30.453125 11.046875 -29.285156 9.609375 -26.953125 C 8.171875 -24.628906 7.453125 -21.09375 7.453125 -16.34375 C 7.453125 -11.59375 8.171875 -8.050781 9.609375 -5.71875 C 11.046875 -3.382812 13.289062 -2.21875 16.34375 -2.21875 Z M 16.34375 -2.21875 "/></g></g></g><g fill="#ffffff" fill-opacity="1"><g transform="translate(64.478645, 64.493144)"><g><path d="M 4.90625 -32.671875 L 8.828125 -32.671875 L 9.40625 -29.546875 C 10.101562 -30.367188 11.191406 -31.203125 12.671875 -32.046875 C 14.160156 -32.898438 16.296875 -33.328125 19.078125 -33.328125 C 22.222656 -33.328125 24.664062 -32.445312 26.40625 -30.6875 C 28.144531 -28.925781 29.015625 -26.300781 29.015625 -22.8125 L 29.015625 0 L 24.25 0 L 24.25 -21.828125 C 24.25 -24.617188 23.679688 -26.65625 22.546875 -27.9375 C 21.410156 -29.226562 19.734375 -29.875 17.515625 -29.875 C 15.941406 -29.875 14.566406 -29.632812 13.390625 -29.15625 C 12.222656 -28.675781 11.300781 -28.148438 10.625 -27.578125 C 9.945312 -27.015625 9.609375 -26.6875 9.609375 -26.59375 L 9.609375 0 L 4.90625 0 Z M 4.90625 -32.671875 "/></g></g></g><g fill="#ffffff" fill-opacity="1"><g transform="translate(99.251197, 64.493144)"><g><path d="M 13 0.65625 C 10.695312 0.65625 8.75 0.296875 7.15625 -0.421875 C 5.5625 -1.140625 4.363281 -1.910156 3.5625 -2.734375 C 2.757812 -3.566406 2.359375 -4.050781 2.359375 -4.1875 L 3.984375 -6.46875 C 3.984375 -6.382812 4.332031 -5.972656 5.03125 -5.234375 C 5.726562 -4.492188 6.6875 -3.804688 7.90625 -3.171875 C 9.125 -2.535156 10.5625 -2.21875 12.21875 -2.21875 C 14.65625 -2.21875 16.492188 -2.828125 17.734375 -4.046875 C 18.984375 -5.265625 19.609375 -6.75 19.609375 -8.5 C 19.609375 -9.757812 19.289062 -10.800781 18.65625 -11.625 C 18.03125 -12.457031 17.25 -13.101562 16.3125 -13.5625 C 15.375 -14.019531 14.078125 -14.53125 12.421875 -15.09375 C 10.503906 -15.789062 8.976562 -16.429688 7.84375 -17.015625 C 6.707031 -17.609375 5.734375 -18.492188 4.921875 -19.671875 C 4.117188 -20.847656 3.71875 -22.375 3.71875 -24.25 C 3.71875 -27.039062 4.726562 -29.25 6.75 -30.875 C 8.78125 -32.507812 11.390625 -33.328125 14.578125 -33.328125 C 15.972656 -33.328125 17.3125 -33.140625 18.59375 -32.765625 C 19.875 -32.398438 20.90625 -32.007812 21.6875 -31.59375 C 22.476562 -31.1875 22.984375 -30.914062 23.203125 -30.78125 L 22.421875 -27.96875 C 22.242188 -28.101562 21.804688 -28.375 21.109375 -28.78125 C 20.410156 -29.195312 19.503906 -29.601562 18.390625 -30 C 17.285156 -30.394531 16.144531 -30.59375 14.96875 -30.59375 C 12.957031 -30.59375 11.332031 -30.085938 10.09375 -29.078125 C 8.851562 -28.078125 8.234375 -26.816406 8.234375 -25.296875 C 8.234375 -24.035156 8.5625 -22.976562 9.21875 -22.125 C 9.875 -21.269531 10.691406 -20.601562 11.671875 -20.125 C 12.648438 -19.644531 13.96875 -19.101562 15.625 -18.5 C 17.539062 -17.84375 19.097656 -17.195312 20.296875 -16.5625 C 21.492188 -15.9375 22.503906 -15.035156 23.328125 -13.859375 C 24.160156 -12.679688 24.578125 -11.15625 24.578125 -9.28125 C 24.578125 -6.445312 23.59375 -4.082031 21.625 -2.1875 C 19.664062 -0.289062 16.789062 0.65625 13 0.65625 Z M 13 0.65625 "/></g></g></g><g fill="#ffffff" fill-opacity="1"><g transform="translate(127.226144, 64.493144)"><g><path d="M 16.53125 0.65625 C 12 0.65625 8.515625 -0.738281 6.078125 -3.53125 C 3.640625 -6.320312 2.421875 -10.484375 2.421875 -16.015625 C 2.421875 -21.585938 3.628906 -25.863281 6.046875 -28.84375 C 8.460938 -31.832031 12.003906 -33.328125 16.671875 -33.328125 C 18.191406 -33.328125 19.625 -33.117188 20.96875 -32.703125 C 22.320312 -32.296875 23.46875 -31.84375 24.40625 -31.34375 C 25.34375 -30.84375 25.8125 -30.566406 25.8125 -30.515625 L 25.234375 -27.84375 C 25.054688 -27.976562 24.585938 -28.25 23.828125 -28.65625 C 23.066406 -29.070312 22.082031 -29.472656 20.875 -29.859375 C 19.675781 -30.253906 18.445312 -30.453125 17.1875 -30.453125 C 13.832031 -30.453125 11.367188 -29.34375 9.796875 -27.125 C 8.234375 -24.90625 7.453125 -21.222656 7.453125 -16.078125 C 7.453125 -11.109375 8.28125 -7.554688 9.9375 -5.421875 C 11.59375 -3.285156 13.921875 -2.21875 16.921875 -2.21875 C 18.628906 -2.21875 20.082031 -2.519531 21.28125 -3.125 C 22.476562 -3.738281 23.398438 -4.382812 24.046875 -5.0625 C 24.703125 -5.738281 25.03125 -6.144531 25.03125 -6.28125 L 27.125 -4.90625 C 27.125 -4.726562 26.726562 -4.171875 25.9375 -3.234375 C 25.15625 -2.296875 23.976562 -1.410156 22.40625 -0.578125 C 20.84375 0.242188 18.882812 0.65625 16.53125 0.65625 Z M 16.53125 0.65625 "/></g></g></g><g fill="#ffffff" fill-opacity="1"><g transform="translate(156.181521, 64.493144)"><g><path d="M 7.25 -39.28125 C 6.46875 -39.28125 5.835938 -39.519531 5.359375 -40 C 4.796875 -40.5625 4.515625 -41.257812 4.515625 -42.09375 C 4.515625 -42.914062 4.796875 -43.613281 5.359375 -44.1875 C 5.835938 -44.664062 6.46875 -44.90625 7.25 -44.90625 C 8.082031 -44.90625 8.738281 -44.6875 9.21875 -44.25 C 9.738281 -43.6875 10 -42.96875 10 -42.09375 C 10 -41.3125 9.738281 -40.613281 9.21875 -40 C 8.601562 -39.519531 7.945312 -39.28125 7.25 -39.28125 Z M 4.84375 0 L 4.84375 -32.671875 L 9.609375 -32.671875 L 9.609375 0 Z M 4.84375 0 "/></g></g></g><g fill="#ffffff" fill-opacity="1"><g transform="translate(171.999212, 64.493144)"><g><path d="M 16.34375 0.65625 C 11.8125 0.65625 8.359375 -0.820312 5.984375 -3.78125 C 3.609375 -6.75 2.421875 -10.9375 2.421875 -16.34375 C 2.421875 -21.738281 3.609375 -25.914062 5.984375 -28.875 C 8.359375 -31.84375 11.8125 -33.328125 16.34375 -33.328125 C 20.875 -33.328125 24.328125 -31.84375 26.703125 -28.875 C 29.078125 -25.914062 30.265625 -21.738281 30.265625 -16.34375 C 30.265625 -10.976562 29.050781 -6.800781 26.625 -3.8125 C 24.207031 -0.832031 20.78125 0.65625 16.34375 0.65625 Z M 16.34375 -2.21875 C 19.394531 -2.21875 21.640625 -3.382812 23.078125 -5.71875 C 24.515625 -8.050781 25.234375 -11.59375 25.234375 -16.34375 C 25.234375 -21.050781 24.515625 -24.578125 23.078125 -26.921875 C 21.640625 -29.273438 19.394531 -30.453125 16.34375 -30.453125 C 13.289062 -30.453125 11.046875 -29.285156 9.609375 -26.953125 C 8.171875 -24.628906 7.453125 -21.09375 7.453125 -16.34375 C 7.453125 -11.59375 8.171875 -8.050781 9.609375 -5.71875 C 11.046875 -3.382812 13.289062 -2.21875 16.34375 -2.21875 Z M 16.34375 -2.21875 "/></g></g></g><g fill="#ffffff" fill-opacity="1"><g transform="translate(206.052775, 64.493144)"><g><path d="M 14.4375 0.65625 C 11.257812 0.65625 8.796875 -0.222656 7.046875 -1.984375 C 5.304688 -3.753906 4.4375 -6.382812 4.4375 -9.875 L 4.4375 -32.671875 L 9.21875 -32.671875 L 9.21875 -10.84375 C 9.21875 -5.488281 11.484375 -2.8125 16.015625 -2.8125 C 17.578125 -2.8125 18.925781 -3.0625 20.0625 -3.5625 C 21.195312 -4.0625 22.101562 -4.59375 22.78125 -5.15625 C 23.457031 -5.726562 23.796875 -6.054688 23.796875 -6.140625 L 23.796875 -32.671875 L 28.5625 -32.671875 L 28.5625 0 L 24.578125 0 L 23.921875 -3.140625 C 23.359375 -2.347656 22.3125 -1.515625 20.78125 -0.640625 C 19.257812 0.222656 17.144531 0.65625 14.4375 0.65625 Z M 14.4375 0.65625 "/></g></g></g><g fill="#ffffff" fill-opacity="1"><g transform="translate(240.825326, 64.493144)"><g><path d="M 13 0.65625 C 10.695312 0.65625 8.75 0.296875 7.15625 -0.421875 C 5.5625 -1.140625 4.363281 -1.910156 3.5625 -2.734375 C 2.757812 -3.566406 2.359375 -4.050781 2.359375 -4.1875 L 3.984375 -6.46875 C 3.984375 -6.382812 4.332031 -5.972656 5.03125 -5.234375 C 5.726562 -4.492188 6.6875 -3.804688 7.90625 -3.171875 C 9.125 -2.535156 10.5625 -2.21875 12.21875 -2.21875 C 14.65625 -2.21875 16.492188 -2.828125 17.734375 -4.046875 C 18.984375 -5.265625 19.609375 -6.75 19.609375 -8.5 C 19.609375 -9.757812 19.289062 -10.800781 18.65625 -11.625 C 18.03125 -12.457031 17.25 -13.101562 16.3125 -13.5625 C 15.375 -14.019531 14.078125 -14.53125 12.421875 -15.09375 C 10.503906 -15.789062 8.976562 -16.429688 7.84375 -17.015625 C 6.707031 -17.609375 5.734375 -18.492188 4.921875 -19.671875 C 4.117188 -20.847656 3.71875 -22.375 3.71875 -24.25 C 3.71875 -27.039062 4.726562 -29.25 6.75 -30.875 C 8.78125 -32.507812 11.390625 -33.328125 14.578125 -33.328125 C 15.972656 -33.328125 17.3125 -33.140625 18.59375 -32.765625 C 19.875 -32.398438 20.90625 -32.007812 21.6875 -31.59375 C 22.476562 -31.1875 22.984375 -30.914062 23.203125 -30.78125 L 22.421875 -27.96875 C 22.242188 -28.101562 21.804688 -28.375 21.109375 -28.78125 C 20.410156 -29.195312 19.503906 -29.601562 18.390625 -30 C 17.285156 -30.394531 16.144531 -30.59375 14.96875 -30.59375 C 12.957031 -30.59375 11.332031 -30.085938 10.09375 -29.078125 C 8.851562 -28.078125 8.234375 -26.816406 8.234375 -25.296875 C 8.234375 -24.035156 8.5625 -22.976562 9.21875 -22.125 C 9.875 -21.269531 10.691406 -20.601562 11.671875 -20.125 C 12.648438 -19.644531 13.96875 -19.101562 15.625 -18.5 C 17.539062 -17.84375 19.097656 -17.195312 20.296875 -16.5625 C 21.492188 -15.9375 22.503906 -15.035156 23.328125 -13.859375 C 24.160156 -12.679688 24.578125 -11.15625 24.578125 -9.28125 C 24.578125 -6.445312 23.59375 -4.082031 21.625 -2.1875 C 19.664062 -0.289062 16.789062 0.65625 13 0.65625 Z M 13 0.65625 "/></g></g></g></g></g></g><g clip-path="url(#340db830cf)"><g transform="matrix(1, 0, 0, 1, 1, 71)"><g clip-path="url(#3c10529096)"><g fill="#ff914d" fill-opacity="1"><g transform="translate(1.35163, 48.887837)"><g><path d="M 5.296875 0 L 5.296875 -46.40625 L 8.421875 -46.40625 L 8.421875 -18.625 L 8.8125 -18.625 L 38.25 -46.40625 L 42.171875 -46.40625 L 21.9375 -27.1875 L 44.953125 0 L 41.171875 0 L 19.828125 -24.859375 L 19.296875 -24.859375 L 8.421875 -14.578125 L 8.421875 0 Z M 5.296875 0 "/></g></g></g><g fill="#ff914d" fill-opacity="1"><g transform="translate(53.652704, 48.887837)"><g><path d="M 0.796875 0 L 22.875 -47.140625 L 23.796875 -47.140625 L 45.875 0 L 42.4375 0 L 38.046875 -9.546875 L 8.625 -9.546875 L 4.3125 0 Z M 9.875 -12.125 L 36.859375 -12.125 L 23.53125 -41.109375 L 23.140625 -41.109375 Z M 9.875 -12.125 "/></g></g></g><g fill="#ff914d" fill-opacity="1"><g transform="translate(106.285208, 48.887837)"><g><path d="M 5.296875 0 L 5.296875 -46.40625 L 25.0625 -46.40625 C 28.019531 -46.40625 30.644531 -45.863281 32.9375 -44.78125 C 35.238281 -43.695312 37.050781 -42.179688 38.375 -40.234375 C 39.707031 -38.296875 40.375 -36 40.375 -33.34375 C 40.375 -31.050781 39.84375 -28.960938 38.78125 -27.078125 C 37.71875 -25.203125 36.257812 -23.664062 34.40625 -22.46875 C 32.550781 -21.28125 30.410156 -20.488281 27.984375 -20.09375 L 40.765625 0 L 37.390625 0 L 24.796875 -19.890625 L 8.359375 -19.828125 L 8.359375 0 Z M 8.359375 -22.40625 L 24.65625 -22.40625 C 27.09375 -22.40625 29.257812 -22.847656 31.15625 -23.734375 C 33.0625 -24.617188 34.554688 -25.867188 35.640625 -27.484375 C 36.722656 -29.097656 37.265625 -30.960938 37.265625 -33.078125 C 37.265625 -35.203125 36.722656 -37.035156 35.640625 -38.578125 C 34.554688 -40.128906 33.0625 -41.332031 31.15625 -42.1875 C 29.257812 -43.050781 27.09375 -43.484375 24.65625 -43.484375 L 8.359375 -43.484375 Z M 8.359375 -22.40625 "/></g></g></g><g fill="#ff914d" fill-opacity="1"><g transform="translate(156.199962, 48.887837)"><g><path d="M 2.0625 0 L 12.203125 -47.140625 L 13.59375 -47.140625 L 28.171875 -13.453125 L 28.640625 -13.453125 L 43.21875 -47.140625 L 44.625 -47.140625 L 54.765625 0 L 51.640625 0 L 43.21875 -37.921875 L 42.765625 -37.921875 L 29.03125 -6.4375 L 27.78125 -6.4375 L 13.984375 -37.921875 L 13.59375 -37.921875 L 5.171875 0 Z M 2.0625 0 "/></g></g></g><g fill="#ff914d" fill-opacity="1"><g transform="translate(218.974285, 48.887837)"><g><path d="M 0.796875 0 L 22.875 -47.140625 L 23.796875 -47.140625 L 45.875 0 L 42.4375 0 L 38.046875 -9.546875 L 8.625 -9.546875 L 4.3125 0 Z M 9.875 -12.125 L 36.859375 -12.125 L 23.53125 -41.109375 L 23.140625 -41.109375 Z M 9.875 -12.125 "/></g></g></g></g></g></g></g></g></svg>