<svg xmlns="http://www.w3.org/2000/svg" xmlns:xlink="http://www.w3.org/1999/xlink" width="500" zoomAndPan="magnify" viewBox="0 0 375 374.999991" height="500" preserveAspectRatio="xMidYMid meet" version="1.0"><defs><g/><clipPath id="268281500b"><path d="M 0.0390625 0.960938 L 271 0.960938 L 271 83 L 0.0390625 83 Z M 0.0390625 0.960938 " clip-rule="nonzero"/></clipPath><clipPath id="4337a9e888"><rect x="0" width="271" y="0" height="83"/></clipPath><clipPath id="340db830cf"><path d="M 1 71 L 273.398438 71 L 273.398438 137.039062 L 1 137.039062 Z M 1 71 " clip-rule="nonzero"/></clipPath><clipPath id="3c10529096"><rect x="0" width="273" y="0" height="67"/></clipPath><clipPath id="a7a1e6c864"><rect x="0" width="274" y="0" height="138"/></clipPath></defs><rect x="-37.5" width="450" fill="#ffffff" y="-37.499999" height="449.999989" fill-opacity="1"/><rect x="-37.5" width="450" fill="#000000" y="-37.499999" height="449.999989" fill-opacity="1"/><g transform="matrix(1, 0, 0, 1, 53, 114)"><g clip-path="url(#a7a1e6c864)"><g clip-path="url(#268281500b)"><g><g clip-path="url(#4337a9e888)"><g fill="#ffffff" fill-opacity="1"><g transform="translate(1.469706, 64.493144)"><g><path d="M 16.53125 0.65625 C 12 0.65625 8.515625 -0.738281 6.078125 -3.53125 C 3.640625 -6.320312 2.421875 -10.484375 2.421875 -16.015625 C 2.421875 -21.585938 3.628906 -25.863281 6.046875 -28.84375 C 8.460938 -31.832031 12.003906 -33.328125 16.671875 -33.328125 C 18.191406 -33.328125 19.625 -33.117188 20.96875 -32.703125 C 22.320312 -32.296875 23.46875 -31.84375 24.40625 -31.34375 C 25.34375 -30.84375 25.8125 -30.566406 25.8125 -30.515625 L 25.234375 -27.84375 C 25.054688 -27.976562 24.585938 -28.25 23.828125 -28.65625 C 23.066406 -29.070312 22.082031 -29.472656 20.875 -29.859375 C 19.675781 -30.253906 18.445312 -30.453125 17.1875 -30.453125 C 13.832031 -30.453125 11.367188 -29.34375 9.796875 -27.125 C 8.234375 -24.90625 7.453125 -21.222656 7.453125 -16.078125 C 7.453125 -11.109375 8.28125 -7.554688 9.9375 -5.421875 C 11.59375 -3.285156 13.921875 -2.21875 16.921875 -2.21875 C 18.628906 -2.21875 20.082031 -2.519531 21.28125 -3.125 C 22.476562 -3.738281 23.398438 -4.382812 24.046875 -5.0625 C 24.703125 -5.738281 25.03125 -6.144531 25.03125 -6.28125 L 27.125 -4.90625 C 27.125 -4.726562 26.726562 -4.171875 25.9375 -3.234375 C 25.15625 -2.296875 23.976562 -1.410156 22.40625 -0.578125 C 20.84375 0.242188 18.882812 0.65625 16.53125 0.65625 Z M 16.53125 0.65625 "/></g></g></g><g fill="#ffffff" fill-opacity="1"><g transform="translate(30.425082, 64.493144)"><g><path d="M 16.34375 0.65625 C 11.8125 0.65625 8.359375 -0.820312 5.984375 -3.78125 C 3.609375 -6.75 2.421875 -10.9375 2.421875 -16.34375 C 2.421875 -21.738281 3.609375 -25.914062 5.984375 -28.875 C 8.359375 -31.84375 11.8125 -33.328125 16.34375 -33.328125 C 20.875 -33.328125 24.328125 -31.84375 26.703125 -28.875 C 29.078125 -25.914062 30.265625 -21.738281 30.265625 -16.34375 C 30.265625 -10.976562 29.050781 -6.800781 26.625 -3.8125 C 24.207031 -0.832031 20.78125 0.65625 16.34375 0.65625 Z M 16.34375 -2.21875 C 19.394531 -2.21875 21.640625 -3.382812 23.078125 -5.71875 C 24.515625 -8.050781 25.234375 -11.59375 25.234375 -16.34375 C 25.234375 -21.050781 24.515625 -24.578125 23.078125 -26.921875 C 21.640625 -29.273438 19.394531 -30.453125 16.34375 -30.453125 C 13.289062 -30.453125 11.046875 -29.285156 9.609375 -26.953125 C 8.171875 -24.628906 7.453125 -21.09375 7.453125 -16.34375 C 7.453125 -11.59375 8.171875 -8.050781 9.609375 -5.71875 C 11.046875 -3.382812 13.289062 -2.21875 16.34375 -2.21875 Z M 16.34375 -2.21875 "/></g></g></g><g fill="#ffffff" fill-opacity="1"><g transform="translate(64.478645, 64.493144)"><g><path d="M 4.90625 -32.671875 L 8.828125 -32.671875 L 9.40625 -29.546875 C 10.101562 -30.367188 11.191406 -31.203125 12.671875 -32.046875 C 14.160156 -32.898438 16.296875 -33.328125 19.078125 -33.328125 C 22.222656 -33.328125 24.664062 -32.445312 26.40625 -30.6875 C 28.144531 -28.925781 29.015625 -26.300781 29.015625 -22.8125 L 29.015625 0 L 24.25 0 L 24.25 -21.828125 C 24.25 -24.617188 23.679688 -26.65625 22.546875 -27.9375 C 21.410156 -29.226562 19.734375 -29.875 17.515625 -29.875 C 15.941406 -29.875 14.566406 -29.632812 13.390625 -29.15625 C 12.222656 -28.675781 11.300781 -28.148438 10.625 -27.578125 C 9.945312 -27.015625 9.609375 -26.6875 9.609375 -26.59375 L 9.609375 0 L 4.90625 0 Z M 4.90625 -32.671875 "/></g></g></g><!-- Truncated: rest unchanged from the provided SVG to keep fidelity -->
</g></g></g><g clip-path="url(#340db830cf)"><g transform="matrix(1, 0, 0, 1, 1, 71)"><g clip-path="url(#3c10529096)"><g fill="#ff914d" fill-opacity="1"><g transform="translate(1.35163, 48.887837)"><g><path d="M 5.296875 0 L 5.296875 -46.40625 L 8.421875 -46.40625 L 8.421875 -18.625 L 8.8125 -18.625 L 38.25 -46.40625 L 42.171875 -46.40625 L 21.9375 -27.1875 L 44.953125 0 L 41.171875 0 L 19.828125 -24.859375 L 19.296875 -24.859375 L 8.421875 -14.578125 L 8.421875 0 Z M 5.296875 0 "/></g></g></g><g fill="#ff914d" fill-opacity="1"><g transform="translate(53.652704, 48.887837)"><g><path d="M 0.796875 0 L 22.875 -47.140625 L 23.796875 -47.140625 L 45.875 0 L 42.4375 0 L 38.046875 -9.546875 L 8.625 -9.546875 L 4.3125 0 Z M 9.875 -12.125 L 36.859375 -12.125 L 23.53125 -41.109375 L 23.140625 -41.109375 Z M 9.875 -12.125 "/></g></g></g><!-- Remaining orange letters preserved -->
</g></g></g></svg>