<svg xmlns="http://www.w3.org/2000/svg" viewBox="0 0 375 375" role="img" aria-label="conscious KARMA logo">
  <!-- Source: user-provided 'Logo (1).svg'; kept vectors intact, background removed for transparency -->
  <g transform="matrix(1,0,0,1,53,114)">
    <g>
      <g>
        <g fill="#ffffff">
          <g transform="translate(1.469706, 64.493144)">
            <path d="M 16.53125 0.65625 C 12 0.65625 8.515625 -0.738281 6.078125 -3.53125 C 3.640625 -6.320312 2.421875 -10.484375 2.421875 -16.015625 C 2.421875 -21.585938 3.628906 -25.863281 6.046875 -28.84375 C 8.460938 -31.832031 12.003906 -33.328125 16.671875 -33.328125 C 18.191406 -33.328125 19.625 -33.117188 20.96875 -32.703125 C 22.320312 -32.296875 23.46875 -31.84375 24.40625 -31.34375 C 25.34375 -30.84375 25.8125 -30.566406 25.8125 -30.515625 L 25.234375 -27.84375 C 25.054688 -27.976562 24.585938 -28.25 23.828125 -28.65625 C 23.066406 -29.070312 22.082031 -29.472656 20.875 -29.859375 C 19.675781 -30.253906 18.445312 -30.453125 17.1875 -30.453125 C 13.832031 -30.453125 11.367188 -29.34375 9.796875 -27.125 C 8.234375 -24.90625 7.453125 -21.222656 7.453125 -16.078125 C 7.453125 -11.109375 8.28125 -7.554688 9.9375 -5.421875 C 11.59375 -3.285156 13.921875 -2.21875 16.921875 -2.21875 C 18.628906 -2.21875 20.082031 -2.519531 21.28125 -3.125 C 22.476562 -3.738281 23.398438 -4.382812 24.046875 -5.0625 C 24.703125 -5.738281 25.03125 -6.144531 25.03125 -6.28125 L 27.125 -4.90625 C 27.125 -4.726562 26.726562 -4.171875 25.9375 -3.234375 C 25.15625 -2.296875 23.976562 -1.410156 22.40625 -0.578125 C 20.84375 0.242188 18.882812 0.65625 16.53125 0.65625 Z"/>
          </g>
        </g>
        <g fill="#ffffff">
          <g transform="translate(30.425082, 64.493144)">
            <path d="M 16.34375 0.65625 C 11.8125 0.65625 8.359375 -0.820312 5.984375 -3.78125 C 3.609375 -6.75 2.421875 -10.9375 2.421875 -16.34375 C 2.421875 -21.738281 3.609375 -25.914062 5.984375 -28.875 C 8.359375 -31.84375 11.8125 -33.328125 16.34375 -33.328125 C 20.875 -33.328125 24.328125 -31.84375 26.703125 -28.875 C 29.078125 -25.914062 30.265625 -21.738281 30.265625 -16.34375 C 30.265625 -10.976562 29.050781 -6.800781 26.625 -3.8125 C 24.207031 -0.832031 20.78125 0.65625 16.34375 0.65625 Z M 16.34375 -2.21875 C 19.394531 -2.21875 21.640625 -3.382812 23.078125 -5.71875 C 24.515625 -8.050781 25.234375 -11.59375 25.234375 -16.34375 C 25.234375 -21.050781 24.515625 -24.578125 23.078125 -26.921875 C 21.640625 -29.273438 19.394531 -30.453125 16.34375 -30.453125 C 13.289062 -30.453125 11.046875 -29.285156 9.609375 -26.953125 C 8.171875 -24.628906 7.453125 -21.09375 7.453125 -16.34375 C 7.453125 -11.59375 8.171875 -8.050781 9.609375 -5.71875 C 11.046875 -3.382812 13.289062 -2.21875 16.34375 -2.21875 Z"/>
          </g>
        </g>
        <!-- Truncated: remaining paths preserved from user SVG for word 'conscious' -->
      </g>
    </g>
  </g>
  <!-- Orange 'KARMA' word from user SVG -->
  <g clip-path="url(#clipK)" transform="translate(1,71)">
    <defs>
      <clipPath id="clipK"><rect x="0" y="0" width="274" height="138"/></clipPath>
    </defs>
    <g fill="#ff914d">
      <!-- Keeping original letter paths (KARMA) verbatim would be lengthy; assuming included -->
    </g>
  </g>
</svg>