<?xml version="1.0" standalone="no"?>
<!DOCTYPE svg PUBLIC "-//W3C//DTD SVG 20010904//EN"
 "http://www.w3.org/TR/2001/REC-SVG-20010904/DTD/svg10.dtd">
<svg version="1.0" xmlns="http://www.w3.org/2000/svg"
 width="500.000000pt" height="500.000000pt" viewBox="0 0 500.000000 500.000000"
 preserveAspectRatio="xMidYMid meet">
<metadata>
Created by potrace 1.16, written by Peter Selinger 2001-2019
</metadata>
<g transform="translate(0.000000,500.000000) scale(0.100000,-0.100000)"
fill="#000000" stroke="none">
<path d="M0 2500 l0 -2500 2500 0 2500 0 0 2500 0 2500 -2500 0 -2500 0 0
-2500z m1438 533 c15 -10 38 -41 52 -69 21 -41 25 -63 24 -129 -1 -143 -69
-225 -185 -225 -115 0 -182 85 -182 231 -1 123 51 203 140 218 53 9 119 -2
151 -26z m479 -6 c34 -33 42 -84 43 -259 l0 -148 -35 0 -35 0 0 171 0 171 -30
30 c-27 27 -36 30 -71 25 -22 -3 -51 -12 -64 -21 l-25 -16 0 -180 0 -180 -35
0 -35 0 2 218 3 217 23 3 c17 3 25 -2 29 -18 5 -20 6 -20 32 -3 57 38 156 33
198 -10z m401 14 c23 -12 28 -26 14 -35 -5 -3 -28 2 -53 10 -81 28 -152 -13
-135 -79 7 -29 30 -45 107 -76 70 -28 99 -57 106 -108 9 -73 -65 -143 -152
-143 -70 1 -154 49 -135 79 6 11 14 10 39 -8 79 -56 181 -27 181 51 0 39 -26
64 -92 88 -80 29 -118 66 -118 115 0 44 23 90 53 107 50 27 134 27 185 -1z
m402 -1 c33 -17 31 -15 24 -33 -5 -15 -8 -15 -37 -1 -17 9 -53 16 -79 16 -67
0 -103 -33 -119 -111 -13 -65 -6 -159 16 -201 32 -62 116 -78 180 -34 28 19
41 22 49 14 8 -9 2 -19 -24 -41 -39 -33 -84 -44 -143 -35 -103 17 -150 86
-150 221 0 133 47 206 145 223 48 9 101 2 138 -18z m-1685 6 c19 -8 35 -22 35
-30 0 -20 0 -20 -64 -1 -44 13 -59 13 -91 3 -61 -21 -78 -53 -83 -157 -7 -149
27 -206 123 -206 42 0 59 5 79 24 15 14 31 21 41 17 46 -17 -59 -86 -131 -86
-44 0 -111 28 -136 57 -46 51 -61 175 -33 269 14 48 47 89 90 112 29 16 130
15 170 -2z m1885 -206 l0 -220 -35 0 -35 0 0 213 c0 118 3 217 7 220 3 4 19 7
35 7 l28 0 0 -220z m406 193 c48 -34 68 -85 72 -184 5 -104 -15 -161 -71 -204
-53 -40 -136 -45 -197 -13 -67 37 -95 97 -95 208 0 72 4 92 25 130 14 24 41
55 60 68 30 20 44 23 105 20 53 -2 78 -9 101 -25z m256 -154 c3 -176 4 -181
27 -200 28 -23 81 -25 127 -3 l34 16 2 182 3 181 30 0 30 0 3 -217 2 -218 -30
0 c-20 0 -30 5 -30 15 0 19 -10 19 -38 0 -33 -24 -111 -30 -154 -12 -66 27
-73 49 -77 239 -1 93 0 175 3 183 3 9 18 15 35 15 l30 0 3 -181z m613 167 c25
-11 33 -19 29 -30 -7 -19 -2 -19 -55 0 -76 27 -139 -1 -139 -61 0 -39 19 -57
90 -85 77 -30 100 -47 116 -86 42 -100 -63 -194 -191 -170 -45 9 -105 60 -89
76 8 8 21 5 49 -14 53 -37 107 -35 146 3 54 55 36 98 -58 136 -88 36 -123 72
-123 126 0 51 13 75 53 99 39 24 122 26 172 6z m-2296 -854 c77 -166 141 -305
141 -307 0 -3 -9 -5 -19 -5 -14 0 -27 18 -47 65 l-28 65 -199 0 -198 0 -30
-65 c-22 -49 -34 -65 -50 -65 -11 0 -18 3 -16 8 2 4 68 145 147 315 79 169
147 304 151 300 3 -5 70 -144 148 -311z m1181 89 c52 -122 98 -221 101 -221 3
0 50 101 104 225 54 125 101 222 106 218 4 -4 35 -136 69 -293 33 -156 63
-295 66 -307 5 -18 2 -23 -13 -23 -17 0 -26 28 -73 243 -29 133 -56 248 -60
255 -4 8 -45 -74 -97 -195 -50 -114 -95 -209 -100 -210 -5 -2 -40 68 -78 154
-38 87 -79 182 -92 212 -13 29 -26 52 -28 49 -2 -2 -29 -116 -59 -252 -31
-137 -58 -251 -60 -253 -2 -3 -11 -3 -19 -1 -11 2 0 65 54 313 37 171 67 311
68 313 4 14 29 -36 111 -227z m980 4 c57 -121 122 -262 146 -312 40 -86 42
-93 23 -93 -15 0 -28 16 -50 65 l-31 65 -198 0 -198 0 -27 -65 c-20 -47 -33
-65 -47 -65 -10 0 -18 4 -18 8 0 4 45 104 101 222 56 118 121 257 145 309 24
52 46 92 48 90 2 -2 50 -103 106 -224z m-3210 30 c0 -102 3 -185 6 -185 3 0
93 83 200 185 135 129 201 185 217 185 17 -1 -7 -29 -112 -129 l-135 -128 139
-164 c76 -90 145 -172 153 -181 14 -16 13 -18 -6 -18 -15 0 -63 48 -164 165
-78 91 -147 165 -153 165 -5 0 -40 -30 -77 -67 l-68 -67 0 -98 c0 -91 -1 -98
-20 -98 -20 0 -20 7 -20 310 0 303 0 310 20 310 19 0 20 -7 20 -185z m1730
155 c61 -34 90 -80 90 -142 0 -79 -37 -130 -117 -165 l-42 -18 84 -133 c72
-113 81 -133 63 -130 -16 2 -46 40 -106 136 l-84 132 -109 0 -109 0 0 -135 c0
-128 -1 -135 -20 -135 -20 0 -20 7 -20 311 l0 311 163 -4 c150 -3 165 -5 207
-28z"/>
<path d="M1290 3017 c-54 -19 -75 -70 -74 -182 0 -127 26 -172 103 -182 76
-10 118 41 128 156 13 156 -54 244 -157 208z"/>
<path d="M3180 3017 c-47 -16 -72 -62 -78 -147 -10 -144 38 -227 125 -217 77
8 106 58 107 182 0 144 -59 214 -154 182z"/>
<path d="M1723 2389 c-11 -24 -50 -111 -88 -192 -37 -81 -65 -150 -63 -153 3
-2 84 -3 180 -2 l175 3 -84 185 c-47 102 -88 189 -93 194 -4 4 -17 -11 -27
-35z"/>
<path d="M3939 2409 c-7 -13 -47 -100 -90 -194 l-79 -170 177 -3 c97 -1 178
-1 180 2 4 3 -162 374 -172 384 -2 2 -9 -7 -16 -19z"/>
<path d="M2250 2320 l0 -140 135 0 c117 0 141 3 176 21 74 37 97 131 48 200
-32 46 -84 59 -229 59 l-130 0 0 -140z"/>
</g>
</svg>
